<svg data-v-fde0c5aa="" xmlns="http://www.w3.org/2000/svg" viewBox="0 0 300 300" class="iconLeftSlogan"><!----><defs data-v-fde0c5aa=""><!----></defs><rect data-v-fde0c5aa="" fill="#FCF2F7" x="0" y="0" width="300px" height="300px" class="logo-background-square"></rect><defs data-v-fde0c5aa=""><!----></defs><g data-v-fde0c5aa="" id="a17e9c1c-9633-44ae-b0cb-db229c640164" fill="#321926" transform="matrix(4.386766396813722,0,0,4.386766396813722,146.68982597186707,83.82745495006543)"><path d="M6.10 17.18L5.70 15.65L2.97 15.65L2.56 17.18L0.10 17.18L2.42 8.43L6.24 8.43L8.57 17.18L6.10 17.18ZM3.46 13.85L5.21 13.85L4.40 10.78L4.27 10.78L3.46 13.85ZM13.37 15.57L8.88 15.57L8.88 14.14L11.38 8.43L15.83 8.43L15.83 13.54L16.79 13.54L16.79 15.57L15.83 15.57L15.83 17.18L13.37 17.18L13.37 15.57ZM11.48 13.54L13.37 13.54L13.37 10.28L12.94 10.28L11.48 13.54ZM23.37 17.18L22.96 15.65L20.23 15.65L19.82 17.18L17.36 17.18L19.68 8.43L23.51 8.43L25.83 17.18L23.37 17.18ZM20.72 13.85L22.47 13.85L21.66 10.78L21.53 10.78L20.72 13.85Z"></path></g><defs data-v-fde0c5aa=""><linearGradient data-v-fde0c5aa="" gradientTransform="rotate(25)" id="ad3a40b1-9443-4025-9202-05886a5e0ce0" x1="0%" y1="0%" x2="100%" y2="0%"><stop data-v-fde0c5aa="" offset="0%" stop-color="#D418EA" stop-opacity="1"></stop><stop data-v-fde0c5aa="" offset="100%" stop-color="#ECD062" stop-opacity="1"></stop></linearGradient></defs><g data-v-fde0c5aa="" id="55a4dbc7-6397-4d5e-9f86-af988b594835" stroke="none" fill="url(#ad3a40b1-9443-4025-9202-05886a5e0ce0)" transform="matrix(1.069642075205514,0,0,1.069642075205514,33.58214754876691,96.5178962397243)"><path d="M94 59.75v-46c0-2.206-1.794-4-4-4H10c-2.206 0-4 1.794-4 4v46h88zM78.939 17.689a1.5 1.5 0 0 1 2.121 0l5 5a1.5 1.5 0 1 1-2.121 2.122l-5-5a1.502 1.502 0 0 1 0-2.122zm-10 0a1.5 1.5 0 0 1 2.121 0l15 15a1.5 1.5 0 1 1-2.121 2.122l-15-15a1.502 1.502 0 0 1 0-2.122zM6 62.75v6c0 2.206 1.794 4 4 4h28.5v6c0 1.071-.541 2.857-1.135 3.748l-2.227 3.34c-.68 1.02-.797 2.116-.319 3.009.477.892 1.454 1.403 2.681 1.403h25c1.227 0 2.203-.512 2.681-1.403.478-.893.361-1.989-.319-3.009l-2.227-3.34c-.594-.891-1.135-2.677-1.135-3.748v-6H90c2.206 0 4-1.794 4-4v-6H6zm44 6a2.5 2.5 0 1 1 0-5 2.5 2.5 0 0 1 0 5z"></path></g><defs data-v-fde0c5aa=""><!----></defs><g data-v-fde0c5aa="" id="2bb8cac5-f408-4ea9-9a9a-5736f1b0a0c7" fill="#321926" transform="matrix(0.4316144436806622,0,0,0.4316144436806622,146.98606984601085,166.7362167768199)"><path d="M0.40 8.09L0.33 5.89L7.40 5.89L7.16 8.16L6.82 8.12L6.70 6.24L4.16 6.24L4.16 13.90L5.37 14.08L5.30 14.40L2.20 14.40L2.24 14.11L3.43 13.90L3.43 6.24L1.00 6.24L0.76 8.15L0.40 8.09ZM16.33 6.33L15.10 6.16L15.12 5.89L18.24 5.89L18.20 6.16L17.05 6.32L17.05 9.95L21.96 9.95L21.96 6.33L20.70 6.16L20.75 5.89L23.86 5.89L23.80 6.16L22.66 6.32L22.66 13.95L23.91 14.08L23.86 14.40L20.77 14.40L20.82 14.11L21.96 13.90L21.96 10.36L17.05 10.36L17.05 13.95L18.32 14.08L18.25 14.40L15.16 14.40L15.19 14.11L16.33 13.90L16.33 6.33ZM32.79 6.33L31.60 6.16L31.64 5.89L34.77 5.89L34.72 6.16L33.52 6.32L33.52 13.95L34.84 14.08L34.78 14.40L31.67 14.40L31.71 14.11L32.79 13.90L32.79 6.33ZM43.80 6.36L42.53 6.14L42.59 5.89L44.66 5.89L49.38 13.17L49.38 6.33L48.13 6.16L48.17 5.89L51.07 5.89L51.02 6.16L49.88 6.32L49.88 14.44L49.51 14.52L44.30 6.65L44.30 13.95L45.56 14.08L45.49 14.40L42.62 14.40L42.66 14.11L43.80 13.90L43.80 6.36ZM61.04 10.27L61.03 10.17L61.03 10.17Q61.67 9.47 62.04 9.04L62.04 9.04L64.30 6.33L63.12 6.16L63.14 5.89L65.93 5.89L65.91 6.16L64.86 6.32L61.74 10.10L63.53 12.20L63.53 12.20Q64.33 13.13 64.83 13.54L64.83 13.54L64.83 13.54Q65.33 13.94 65.91 14.03L65.91 14.03L66.28 14.08L66.20 14.38L66.20 14.38Q66.20 14.38 66.07 14.42L66.07 14.42L66.07 14.42Q65.93 14.46 65.88 14.48L65.88 14.48L65.88 14.48Q65.84 14.50 65.77 14.52L65.77 14.52L65.77 14.52Q65.69 14.53 65.63 14.54L65.63 14.54L65.63 14.54Q65.56 14.55 65.47 14.55L65.47 14.55L65.47 14.55Q65.15 14.55 64.85 14.43L64.85 14.43L64.85 14.43Q64.55 14.31 64.24 14.03L64.24 14.03L64.24 14.03Q63.92 13.75 63.71 13.51L63.71 13.51L63.71 13.51Q63.49 13.28 63.12 12.82L63.12 12.82L61.04 10.27ZM59.92 6.33L58.74 6.16L58.78 5.89L61.84 5.89L61.82 6.16L60.66 6.32L60.66 13.95L61.93 14.08L61.86 14.40L58.81 14.40L58.85 14.11L59.92 13.90L59.92 6.33ZM74.10 13.92L74.10 13.92L74.10 13.92Q74.10 13.25 74.53 13.25L74.53 13.25L74.53 13.25Q74.96 13.25 74.96 13.92L74.96 13.92L74.96 13.92Q74.96 14.62 74.53 14.62L74.53 14.62L74.53 14.62Q74.10 14.62 74.10 13.92ZM82.85 13.92L82.85 13.92L82.85 13.92Q82.85 13.25 83.28 13.25L83.28 13.25L83.28 13.25Q83.71 13.25 83.71 13.92L83.71 13.92L83.71 13.92Q83.71 14.62 83.28 14.62L83.28 14.62L83.28 14.62Q82.85 14.62 82.85 13.92ZM91.52 10.25L91.52 10.25L91.52 10.25Q91.52 9.73 91.63 9.21L91.63 9.21L91.63 9.21Q91.73 8.68 91.93 8.17L91.93 8.17L91.93 8.17Q92.13 7.66 92.46 7.22L92.46 7.22L92.46 7.22Q92.79 6.77 93.20 6.44L93.20 6.44L93.20 6.44Q93.62 6.10 94.18 5.90L94.18 5.90L94.18 5.90Q94.73 5.71 95.37 5.71L95.37 5.71L95.37 5.71Q96.78 5.71 97.69 6.39L97.69 6.39L97.48 8.70L97.16 8.64L96.95 6.87L96.95 6.87Q96.36 6.09 95.05 6.09L95.05 6.09L95.05 6.09Q93.90 6.09 93.07 7.19L93.07 7.19L93.07 7.19Q92.24 8.30 92.24 10.00L92.24 10.00L92.24 10.00Q92.24 11.92 93.05 12.97L93.05 12.97L93.05 12.97Q93.85 14.03 95.33 14.03L95.33 14.03L95.33 14.03Q96.06 14.03 96.75 13.65L96.75 13.65L96.75 13.65Q97.44 13.28 97.91 12.74L97.91 12.74L98.07 12.99L98.07 12.99Q97.90 13.25 97.61 13.51L97.61 13.51L97.61 13.51Q97.32 13.77 96.94 14.02L96.94 14.02L96.94 14.02Q96.55 14.27 96.04 14.42L96.04 14.42L96.04 14.42Q95.54 14.57 95.01 14.57L95.01 14.57L95.01 14.57Q93.44 14.57 92.48 13.40L92.48 13.40L92.48 13.40Q91.52 12.22 91.52 10.25ZM107.56 6.18L107.56 10.11L109.12 10.11L109.12 10.11Q109.80 9.86 110.26 9.28L110.26 9.28L110.26 9.28Q110.71 8.70 110.71 8.02L110.71 8.02L110.71 8.02Q110.71 7.11 110.10 6.63L110.10 6.63L110.10 6.63Q109.48 6.15 108.39 6.15L108.39 6.15L107.56 6.18ZM108.94 14.40L105.75 14.40L105.79 14.11L106.86 13.90L106.86 6.51L105.77 6.37L105.83 6.13L105.83 6.13Q107.65 5.83 108.73 5.83L108.73 5.83L108.73 5.83Q109.50 5.83 110.11 6.05L110.11 6.05L110.11 6.05Q110.71 6.27 111.09 6.73L111.09 6.73L111.09 6.73Q111.47 7.19 111.47 7.83L111.47 7.83L111.47 7.83Q111.47 8.57 111.04 9.14L111.04 9.14L111.04 9.14Q110.61 9.72 109.58 10.23L109.58 10.23L109.58 10.23L110.90 12.19L110.90 12.19Q111.61 13.23 111.96 13.58L111.96 13.58L111.96 13.58Q112.30 13.92 112.68 14.05L112.68 14.05L113.01 14.16L112.97 14.42L112.97 14.42Q112.68 14.52 112.33 14.52L112.33 14.52L112.33 14.52Q112.05 14.52 111.79 14.40L111.79 14.40L111.79 14.40Q111.54 14.28 111.30 14.01L111.30 14.01L111.30 14.01Q111.06 13.75 110.87 13.48L110.87 13.48L110.87 13.48Q110.69 13.22 110.41 12.77L110.41 12.77L109.03 10.49L107.56 10.49L107.56 13.95L109.01 14.08L108.94 14.40ZM121.93 6.36L120.70 6.18L120.75 5.89L126.94 5.89L126.73 8.07L126.42 8.03L126.29 6.24L122.64 6.24L122.64 9.89L124.93 9.89L125.18 8.94L125.55 8.89L125.32 11.55L124.97 11.61L124.87 10.26L122.64 10.26L122.64 14.03L126.48 14.03L126.98 12.19L127.26 12.26L127.06 14.40L120.72 14.40L120.76 14.11L121.93 13.90L121.93 6.36ZM139.04 6.98L137.67 10.75L140.36 10.75L139.04 6.98ZM137.72 14.40L134.99 14.40L135.02 14.11L135.99 13.90L138.99 5.82L139.35 5.73L142.19 13.95L143.09 14.08L143.04 14.39L140.24 14.39L140.30 14.10L141.44 13.90L140.49 11.13L137.53 11.13L136.52 13.95L137.78 14.08L137.72 14.40ZM150.84 8.09L150.77 5.89L157.83 5.89L157.60 8.16L157.25 8.12L157.14 6.24L154.60 6.24L154.60 13.90L155.81 14.08L155.74 14.40L152.64 14.40L152.67 14.11L153.87 13.90L153.87 6.24L151.44 6.24L151.20 8.15L150.84 8.09ZM166.77 6.36L165.55 6.18L165.59 5.89L171.79 5.89L171.58 8.07L171.26 8.03L171.13 6.24L167.48 6.24L167.48 9.89L169.77 9.89L170.02 8.94L170.39 8.89L170.17 11.55L169.82 11.61L169.71 10.26L167.48 10.26L167.48 14.03L171.32 14.03L171.83 12.19L172.11 12.26L171.90 14.40L165.57 14.40L165.61 14.11L166.77 13.90L166.77 6.36ZM179.93 13.92L179.93 13.92L179.93 13.92Q179.93 13.25 180.36 13.25L180.36 13.25L180.36 13.25Q180.79 13.25 180.79 13.92L180.79 13.92L180.79 13.92Q180.79 14.62 180.36 14.62L180.36 14.62L180.36 14.62Q179.93 14.62 179.93 13.92ZM188.68 13.92L188.68 13.92L188.68 13.92Q188.68 13.25 189.11 13.25L189.11 13.25L189.11 13.25Q189.54 13.25 189.54 13.92L189.54 13.92L189.54 13.92Q189.54 14.62 189.11 14.62L189.11 14.62L189.11 14.62Q188.68 14.62 188.68 13.92ZM197.33 13.60L197.33 13.60L197.53 11.66L197.86 11.71L198.05 13.21L198.05 13.21Q198.28 13.64 198.81 13.89L198.81 13.89L198.81 13.89Q199.34 14.14 199.94 14.14L199.94 14.14L199.94 14.14Q200.62 14.14 201.10 13.74L201.10 13.74L201.10 13.74Q201.58 13.33 201.58 12.61L201.58 12.61L201.58 12.61Q201.58 12.20 201.36 11.83L201.36 11.83L201.36 11.83Q201.15 11.46 200.80 11.18L200.80 11.18L200.80 11.18Q200.46 10.90 200.04 10.63L200.04 10.63L200.04 10.63Q199.62 10.36 199.20 10.07L199.20 10.07L199.20 10.07Q198.78 9.79 198.44 9.48L198.44 9.48L198.44 9.48Q198.09 9.17 197.88 8.75L197.88 8.75L197.88 8.75Q197.66 8.33 197.66 7.84L197.66 7.84L197.66 7.84Q197.66 6.88 198.35 6.29L198.35 6.29L198.35 6.29Q199.05 5.71 199.93 5.71L199.93 5.71L199.93 5.71Q200.52 5.71 201.06 5.90L201.06 5.90L201.06 5.90Q201.60 6.09 201.93 6.46L201.93 6.46L201.70 8.58L201.39 8.53L201.20 6.87L201.20 6.87Q201.02 6.54 200.60 6.32L200.60 6.32L200.60 6.32Q200.18 6.10 199.75 6.10L199.75 6.10L199.75 6.10Q199.16 6.10 198.74 6.48L198.74 6.48L198.74 6.48Q198.33 6.87 198.33 7.52L198.33 7.52L198.33 7.52Q198.33 7.96 198.55 8.35L198.55 8.35L198.55 8.35Q198.78 8.74 199.13 9.03L199.13 9.03L199.13 9.03Q199.48 9.32 199.90 9.61L199.90 9.61L199.90 9.61Q200.33 9.89 200.75 10.17L200.75 10.17L200.75 10.17Q201.18 10.45 201.53 10.75L201.53 10.75L201.53 10.75Q201.89 11.05 202.11 11.45L202.11 11.45L202.11 11.45Q202.33 11.85 202.33 12.29L202.33 12.29L202.33 12.29Q202.33 13.28 201.58 13.93L201.58 13.93L201.58 13.93Q200.83 14.57 199.58 14.57L199.58 14.57L199.58 14.57Q198.87 14.57 198.27 14.30L198.27 14.30L198.27 14.30Q197.67 14.03 197.33 13.60ZM210.83 9.75L210.83 9.75L210.83 9.75Q210.83 11.03 211.19 12.01L211.19 12.01L211.19 12.01Q211.55 13.00 212.27 13.57L212.27 13.57L212.27 13.57Q212.99 14.14 213.96 14.14L213.96 14.14L213.96 14.14Q214.54 14.14 215.03 13.92L215.03 13.92L215.03 13.92Q215.52 13.70 215.87 13.33L215.87 13.33L215.87 13.33Q216.21 12.96 216.46 12.49L216.46 12.49L216.46 12.49Q216.70 12.01 216.82 11.50L216.82 11.50L216.82 11.50Q216.93 10.99 216.93 10.48L216.93 10.48L216.93 10.48Q216.93 8.50 216.08 7.29L216.08 7.29L216.08 7.29Q215.23 6.07 213.78 6.07L213.78 6.07L213.78 6.07Q213.20 6.07 212.71 6.28L212.71 6.28L212.71 6.28Q212.21 6.49 211.87 6.85L211.87 6.85L211.87 6.85Q211.53 7.21 211.29 7.69L211.29 7.69L211.29 7.69Q211.05 8.16 210.94 8.69L210.94 8.69L210.94 8.69Q210.83 9.21 210.83 9.75ZM210.08 10.16L210.08 10.16L210.08 10.16Q210.08 8.16 211.17 6.92L211.17 6.92L211.17 6.92Q212.27 5.69 214.11 5.69L214.11 5.69L214.11 5.69Q215.24 5.69 216.06 6.27L216.06 6.27L216.06 6.27Q216.88 6.86 217.27 7.84L217.27 7.84L217.27 7.84Q217.67 8.83 217.67 10.11L217.67 10.11L217.67 10.11Q217.67 10.75 217.52 11.38L217.52 11.38L217.52 11.38Q217.37 12.00 217.04 12.58L217.04 12.58L217.04 12.58Q216.72 13.17 216.26 13.61L216.26 13.61L216.26 13.61Q215.80 14.05 215.12 14.32L215.12 14.32L215.12 14.32Q214.44 14.58 213.64 14.58L213.64 14.58L213.64 14.58Q212.58 14.58 211.76 13.98L211.76 13.98L211.76 13.98Q210.94 13.37 210.51 12.37L210.51 12.37L210.51 12.37Q210.08 11.37 210.08 10.16ZM231.56 14.40L225.41 14.40L225.44 14.11L226.60 13.90L226.60 6.34L225.42 6.17L225.45 5.90L228.56 5.90L228.53 6.17L227.33 6.32L227.33 14.03L230.95 14.03L231.48 12.09L231.78 12.14L231.56 14.40ZM240.48 6.34L239.48 6.14L239.50 5.89L242.40 5.89L242.38 6.14L241.23 6.32L243.59 13.30L246.17 6.34L244.90 6.14L244.92 5.89L247.58 5.89L247.56 6.14L246.67 6.32L243.66 14.47L243.31 14.57L240.48 6.34ZM256.50 6.36L255.28 6.18L255.33 5.89L261.52 5.89L261.31 8.07L261.00 8.03L260.87 6.24L257.22 6.24L257.22 9.89L259.51 9.89L259.76 8.94L260.13 8.89L259.90 11.55L259.55 11.61L259.44 10.26L257.22 10.26L257.22 14.03L261.06 14.03L261.56 12.19L261.84 12.26L261.64 14.40L255.30 14.40L255.34 14.11L256.50 13.90L256.50 6.36Z"></path></g></svg>